<?xml version="1.0" encoding="utf-8"?>
<!-- Generator: Adobe Illustrator 21.0.2, SVG Export Plug-In . SVG Version: 6.00 Build 0)  -->
<svg version="1.1" id="logo_xA0_Image_1_" xmlns="http://www.w3.org/2000/svg" xmlns:xlink="http://www.w3.org/1999/xlink" x="0px"
	 y="0px" viewBox="0 0 3117.1 800" style="enable-background:new 0 0 3117.1 800;" xml:space="preserve">
<style type="text/css">
	.st0{opacity:0.7;enable-background:new    ;}
	.st1{fill:#C7CBF4;}
	.st2{enable-background:new    ;}
	.st3{fill:#FF60A5;}
</style>
<image style="overflow:visible;enable-background:new    ;" width="455" height="472" id="logo_xA0_Image" xlink:href="B4CDC18C.png"  transform="matrix(1 0 0 1 173 164)">
</image>
<g class="st0">
	<path class="st1" d="M904.8,583.5c-0.9-15.3-2-33.7-1.8-47.3h-0.5c-4.1,12.8-9.2,26.5-15.3,41.6l-21.4,53.2H854l-19.6-52.2
		c-5.7-15.5-10.6-29.6-14-42.6H820c-0.4,13.7-1.3,32-2.3,48.4l-3.2,47h-14.9L808,522h19.9l20.6,53c5,13.5,9.2,25.5,12.2,36.9h0.5
		c3.1-11.1,7.4-23.1,12.8-36.9l21.5-53h19.9l7.5,109.6h-15.3L904.8,583.5z"/>
	<path class="st1" d="M1026.4,591.6c0,29.1-22.3,41.8-43.3,41.8c-23.5,0-41.7-15.6-41.7-40.5c0-26.3,19-41.8,43.1-41.8
		C1009.5,551.1,1026.4,567.5,1026.4,591.6z M957.5,592.4c0,17.2,10.9,30.2,26.4,30.2c15.1,0,26.4-12.8,26.4-30.5
		c0-13.3-7.4-30.2-26-30.2C965.6,561.8,957.5,577.4,957.5,592.4z"/>
	<path class="st1" d="M1045.7,631.6c0.4-5.4,0.7-13.3,0.7-20.3v-95.1h15.6v49.4h0.4c5.6-8.8,15.6-14.5,29.6-14.5
		c21.5,0,36.8,16.2,36.6,40.1c0,28.1-19.6,42.1-39,42.1c-12.6,0-22.6-4.4-29.1-14.8h-0.5l-0.7,13H1045.7z M1062,600
		c0,1.8,0.4,3.6,0.7,5.2c3.1,9.9,12.2,16.7,23.7,16.7c16.5,0,26.4-12.2,26.4-30.2c0-15.8-9-29.3-25.9-29.3
		c-10.8,0-20.8,6.7-24.1,17.6c-0.4,1.6-0.9,3.6-0.9,5.9V600z"/>
	<path class="st1" d="M1166.2,530.8c0.2,4.9-3.8,8.8-10.1,8.8c-5.6,0-9.5-3.9-9.5-8.8c0-5,4.1-8.9,9.9-8.9
		C1162.5,521.9,1166.2,525.7,1166.2,530.8z M1148.6,631.6v-78.7h15.8v78.7H1148.6z"/>
	<path class="st1" d="M1190.7,516.2h15.8v115.4h-15.8V516.2z"/>
	<path class="st1" d="M1241.9,594.8c0.4,19.3,14,27.3,29.8,27.3c11.3,0,18.1-1.8,24.1-4.1l2.7,10.2c-5.6,2.3-15.1,4.9-28.9,4.9
		c-26.8,0-42.7-15.9-42.7-39.7s15.4-42.4,40.8-42.4c28.4,0,35.9,22.6,35.9,37.1c0,2.9-0.4,5.2-0.5,6.7H1241.9z M1288.2,584.6
		c0.2-9.1-4.1-23.2-21.9-23.2c-16,0-23,13.3-24.2,23.2H1288.2z"/>
	<path class="st1" d="M1437.5,631.6c-3.4-3.1-6.6-6.2-11.3-10.7c-10.4,8.8-22.1,12.5-35.4,12.5c-23.5,0-37.2-14.3-37.2-30.7
		c0-15,9.9-25.2,23.7-32v-0.5c-6.3-7.2-10.1-15.1-10.1-22.9c0-13.3,10.6-27,30.7-27c15.1,0,26.8,9.1,26.8,23.2
		c0,11.5-7.4,20.6-26.6,29.3v0.5c10.2,10.7,21.7,22.8,29.5,30.6c5.6-7.6,9.3-18.2,11.7-32h14.4c-3.2,17.2-8.4,30.9-17.4,40.5
		c6.5,6.2,12.8,12.4,19.9,19.3H1437.5z M1418.4,612.7c-7.2-7.2-20.6-20.5-34.1-34.5c-6.5,3.7-15.6,10.7-15.6,22.3
		c0,12.5,10.2,22.1,24.8,22.1C1403.9,622.6,1412.7,618.4,1418.4,612.7z M1381.6,545.9c0,7.8,4,13.8,9.2,19.7
		c12.2-6.3,20.1-12.2,20.1-21.5c0-6.7-4.1-14.1-14-14.1C1386.8,530,1381.6,537.5,1381.6,545.9z"/>
	<path class="st1" d="M1507.2,631.6c0.4-5.4,0.7-13.3,0.7-20.3v-95.1h15.6v49.4h0.4c5.6-8.8,15.6-14.5,29.6-14.5
		c21.5,0,36.8,16.2,36.6,40.1c0,28.1-19.6,42.1-39,42.1c-12.6,0-22.6-4.4-29.1-14.8h-0.5l-0.7,13H1507.2z M1523.6,600
		c0,1.8,0.4,3.6,0.7,5.2c3.1,9.9,12.2,16.7,23.7,16.7c16.5,0,26.4-12.2,26.4-30.2c0-15.8-9-29.3-25.9-29.3
		c-10.8,0-20.8,6.7-24.1,17.6c-0.4,1.6-0.9,3.6-0.9,5.9V600z"/>
	<path class="st1" d="M1610.2,577.4c0-9.3-0.2-17.2-0.7-24.5h13.8l0.5,15.5h0.7c4-10.6,13.5-17.2,24.1-17.2c1.8,0,3.1,0.2,4.5,0.5
		v13.5c-1.6-0.3-3.2-0.5-5.4-0.5c-11.1,0-19,7.6-21.2,18.4c-0.4,2-0.7,4.2-0.7,6.7v41.9h-15.6V577.4z"/>
	<path class="st1" d="M1745.8,591.6c0,29.1-22.3,41.8-43.3,41.8c-23.5,0-41.7-15.6-41.7-40.5c0-26.3,19-41.8,43.1-41.8
		C1728.9,551.1,1745.8,567.5,1745.8,591.6z M1676.8,592.4c0,17.2,10.9,30.2,26.4,30.2c15.1,0,26.4-12.8,26.4-30.5
		c0-13.3-7.4-30.2-26-30.2C1684.9,561.8,1676.8,577.4,1676.8,592.4z"/>
	<path class="st1" d="M1770.8,552.9l11.5,40c2.5,8.8,4.8,16.9,6.5,25h0.5c2-8,4.8-16.4,7.7-24.9l14.2-40.2h13.3l13.5,39.3
		c3.2,9.4,5.7,17.7,7.7,25.7h0.5c1.4-8,3.8-16.3,6.7-25.5l12.4-39.5h15.6l-28,78.7h-14.4l-13.3-37.6c-3-8.8-5.6-16.6-7.7-25.8h-0.4
		c-2.1,9.4-4.8,17.6-7.9,26l-14,37.4h-14.4l-26.2-78.7H1770.8z"/>
	<path class="st1" d="M1893.5,617c4.7,2.8,12.9,5.7,20.8,5.7c11.5,0,16.9-5.2,16.9-11.7c0-6.8-4.5-10.6-16.2-14.5
		c-15.6-5-23-12.8-23-22.3c0-12.7,11.3-23.1,30-23.1c8.8,0,16.5,2.3,21.4,4.9l-4,10.4c-3.4-1.9-9.7-4.5-17.8-4.5
		c-9.3,0-14.5,4.9-14.5,10.7c0,6.5,5.2,9.4,16.5,13.3c15.1,5.2,22.8,12,22.8,23.7c0,13.8-11.8,23.6-32.5,23.6
		c-9.5,0-18.3-2.1-24.4-5.4L1893.5,617z"/>
	<path class="st1" d="M1975.6,594.8c0.4,19.3,14,27.3,29.8,27.3c11.3,0,18.1-1.8,24.1-4.1l2.7,10.2c-5.6,2.3-15.1,4.9-28.9,4.9
		c-26.8,0-42.7-15.9-42.7-39.7s15.4-42.4,40.8-42.4c28.4,0,35.9,22.6,35.9,37.1c0,2.9-0.4,5.2-0.5,6.7H1975.6z M2021.9,584.6
		c0.2-9.1-4.1-23.2-21.9-23.2c-16,0-23,13.3-24.2,23.2H2021.9z"/>
	<path class="st1" d="M2056.8,577.4c0-9.3-0.2-17.2-0.7-24.5h13.8l0.5,15.5h0.7c4-10.6,13.5-17.2,24.1-17.2c1.8,0,3.1,0.2,4.5,0.5
		v13.5c-1.6-0.3-3.2-0.5-5.4-0.5c-11.1,0-19,7.6-21.2,18.4c-0.4,2-0.7,4.2-0.7,6.7v41.9h-15.6V577.4z"/>
	<path class="st1" d="M2113.3,617c4.7,2.8,12.9,5.7,20.8,5.7c11.5,0,16.9-5.2,16.9-11.7c0-6.8-4.5-10.6-16.2-14.5
		c-15.6-5-23-12.8-23-22.3c0-12.7,11.3-23.1,30-23.1c8.8,0,16.5,2.3,21.4,4.9l-4,10.4c-3.4-1.9-9.7-4.5-17.8-4.5
		c-9.3,0-14.5,4.9-14.5,10.7c0,6.5,5.2,9.4,16.5,13.3c15.1,5.2,22.8,12,22.8,23.7c0,13.8-11.8,23.6-32.5,23.6
		c-9.5,0-18.3-2.1-24.4-5.4L2113.3,617z"/>
	<path class="st1" d="M2260.7,617c4.7,2.8,12.9,5.7,20.8,5.7c11.5,0,16.9-5.2,16.9-11.7c0-6.8-4.5-10.6-16.2-14.5
		c-15.6-5-23-12.8-23-22.3c0-12.7,11.3-23.1,30-23.1c8.8,0,16.5,2.3,21.4,4.9l-4,10.4c-3.4-1.9-9.7-4.5-17.8-4.5
		c-9.3,0-14.5,4.9-14.5,10.7c0,6.5,5.2,9.4,16.5,13.3c15.1,5.2,22.8,12,22.8,23.7c0,13.8-11.8,23.6-32.5,23.6
		c-9.5,0-18.3-2.1-24.4-5.4L2260.7,617z"/>
	<path class="st1" d="M2412.6,591.6c0,29.1-22.3,41.8-43.3,41.8c-23.5,0-41.7-15.6-41.7-40.5c0-26.3,19-41.8,43.1-41.8
		C2395.8,551.1,2412.6,567.5,2412.6,591.6z M2343.7,592.4c0,17.2,10.9,30.2,26.4,30.2c15.1,0,26.4-12.8,26.4-30.5
		c0-13.3-7.4-30.2-26-30.2C2351.8,561.8,2343.7,577.4,2343.7,592.4z"/>
	<path class="st1" d="M2432.6,516.2h15.8v115.4h-15.8V516.2z"/>
	<path class="st1" d="M2547.7,610.1c0,8.1,0.2,15.3,0.7,21.5h-14l-0.9-12.8h-0.4c-4.1,6.3-13.3,14.6-28.7,14.6
		c-13.6,0-30-6.8-30-34.5v-46h15.8v43.6c0,15,5,25,19.4,25c10.6,0,18-6.7,20.8-13c0.9-2.1,1.4-4.7,1.4-7.3v-48.3h15.8V610.1z"/>
	<path class="st1" d="M2593,530.3v22.6h22.6v10.9H2593v42.4c0,9.8,3.1,15.3,11.9,15.3c4.1,0,7.2-0.5,9.2-1l0.7,10.7
		c-3.1,1.1-7.9,1.9-14,1.9c-7.4,0-13.3-2.1-17.1-6c-4.5-4.2-6.1-11.2-6.1-20.5v-42.9h-13.5v-10.9h13.5V534L2593,530.3z"/>
	<path class="st1" d="M2651.1,530.8c0.2,4.9-3.8,8.8-10.1,8.8c-5.6,0-9.5-3.9-9.5-8.8c0-5,4.1-8.9,9.9-8.9
		C2647.3,521.9,2651.1,525.7,2651.1,530.8z M2633.5,631.6v-78.7h15.8v78.7H2633.5z"/>
	<path class="st1" d="M2754.1,591.6c0,29.1-22.3,41.8-43.3,41.8c-23.5,0-41.7-15.6-41.7-40.5c0-26.3,19-41.8,43.1-41.8
		C2737.3,551.1,2754.1,567.5,2754.1,591.6z M2685.2,592.4c0,17.2,10.9,30.2,26.4,30.2c15.1,0,26.4-12.8,26.4-30.5
		c0-13.3-7.4-30.2-26-30.2C2693.3,561.8,2685.2,577.4,2685.2,592.4z"/>
	<path class="st1" d="M2774.1,574.2c0-8.1-0.2-14.8-0.7-21.3h14l0.9,13h0.4c4.3-7.5,14.4-14.8,28.7-14.8c12,0,30.7,6.5,30.7,33.5v47
		h-15.8v-45.4c0-12.7-5.2-23.2-20.1-23.2c-10.4,0-18.5,6.7-21.2,14.6c-0.7,1.8-1.1,4.2-1.1,6.7v47.3h-15.8V574.2z"/>
	<path class="st1" d="M2871.7,617c4.7,2.8,12.9,5.7,20.8,5.7c11.5,0,16.9-5.2,16.9-11.7c0-6.8-4.5-10.6-16.2-14.5
		c-15.6-5-23-12.8-23-22.3c0-12.7,11.3-23.1,30-23.1c8.8,0,16.5,2.3,21.4,4.9l-4,10.4c-3.4-1.9-9.7-4.5-17.8-4.5
		c-9.3,0-14.5,4.9-14.5,10.7c0,6.5,5.2,9.4,16.5,13.3c15.1,5.2,22.8,12,22.8,23.7c0,13.8-11.8,23.6-32.5,23.6
		c-9.5,0-18.3-2.1-24.4-5.4L2871.7,617z"/>
</g>
<g class="st2">
	<path class="st1" d="M805.5,413.8V166h88.3c31.9,0,56.8,5.7,74.7,17.1c17.9,11.4,26.8,28.4,26.8,51c0,11.8-2.9,22.3-8.7,31.5
		c-5.8,9.2-14.7,16.1-26.7,20.8c15.1,3.3,26.2,9.9,33.4,19.8c7.2,9.9,10.8,21.4,10.8,34.3c0,24.2-8.4,42.4-25.3,54.8
		c-16.8,12.4-41,18.5-72.4,18.5H805.5z M865.4,269.3H895c13.5-0.2,23.7-2.8,30.4-7.6c6.7-4.8,10.1-11.9,10.1-21.2
		c0-10.6-3.4-18.2-10.2-23.1c-6.8-4.8-17.3-7.2-31.4-7.2h-28.4V269.3z M865.4,307.4v62.1h41.1c12.7,0,22.2-2.4,28.6-7.2
		c6.4-4.8,9.5-12.2,9.5-22.2c0-10.8-2.7-18.9-8.2-24.4c-5.5-5.5-14.3-8.2-26.6-8.2H865.4z"/>
	<path class="st1" d="M1121.7,417.3c-28.1,0-50.6-8.5-67.4-25.5c-16.8-17-25.2-38.3-25.2-64v-6.5c0-28,7.6-50.9,22.9-68.7
		c15.2-17.7,37.1-26.6,65.4-26.5c25.9,0,46.2,7.5,60.9,22.5c14.7,15,22.1,35.3,22.1,60.9v30.1h-109.1l-0.4,1
		c1.3,9.4,5.3,17.2,12,23.2c6.7,6.1,15.6,9.1,26.8,9.1c11.3,0,20.3-0.8,27.1-2.6c6.8-1.7,15.3-4.6,25.7-8.8l14.1,35.1
		c-8.4,5.9-19.2,10.8-32.4,14.7C1151.1,415.4,1136.9,417.3,1121.7,417.3z M1117.5,270.5c-8.6,0-15,3-19.3,8.8
		c-4.3,5.9-6.9,13.8-7.9,23.7l0.5,0.8h51.4v-4.4c0-9.3-2-16.4-6-21.4C1132.2,273,1126,270.5,1117.5,270.5z"/>
	<path class="st1" d="M1325.3,362c0-4.5-2.7-8.6-8-12.2c-5.4-3.6-15.1-6.8-29.2-9.6c-22.2-4.2-39-10.7-50.3-19.6
		c-11.3-8.9-17-20.9-17-36.2c0-16.2,7.1-30,21.2-41.3s33.3-16.9,57.4-16.9c25.4,0,45.7,5.5,60.7,16.4c15.1,10.9,22.2,25.1,21.5,42.5
		l-0.4,1h-57.9c0-7.3-1.9-12.8-5.7-16.5c-3.8-3.7-10-5.6-18.4-5.6c-6.2,0-11.5,1.6-15.7,4.9s-6.4,7.5-6.4,12.6c0,4.9,2.4,9,7.3,12.4
		c4.9,3.4,14.7,6.5,29.6,9.2c23.3,4.4,40.6,11,51.8,19.8c11.2,8.8,16.9,21.2,16.9,37.3c0,16.6-7.6,30.2-22.9,40.9
		c-15.2,10.7-35.4,16.1-60.5,16.1c-26,0-46.6-6.4-61.7-19.1c-15.1-12.7-22.3-26.9-21.6-42.5l0.4-1h54c0.2,8.7,3,15,8.2,18.9
		c5.2,3.9,12.7,5.8,22.3,5.8c8,0,14.1-1.5,18.2-4.5C1323.3,371.9,1325.3,367.6,1325.3,362z"/>
	<path class="st1" d="M1481.4,183.9v45.8h32.3v39.8h-32.3v84.4c0,6.6,1.4,11.3,4.1,14.2c2.8,2.9,6.5,4.3,11.2,4.3
		c3.8,0,6.7-0.1,8.9-0.3c2.2-0.2,5-0.7,8.4-1.4l4.2,42.5c-6.6,1.5-12.5,2.5-17.8,3.1c-5.3,0.6-11.5,0.9-18.7,0.9
		c-19.7,0-34.5-5-44.7-15.1c-10.1-10.1-15.2-26.1-15.2-48v-84.7h-26.8v-39.8h26.8v-45.8H1481.4z"/>
</g>
<g class="st2">
	<path class="st3" d="M1724.6,210.3h-67.8v203.5h-59.9V210.3h-67.3V166h194.9V210.3z"/>
	<path class="st3" d="M1723.7,320c0-27.7,8.1-50.2,24.4-67.6c16.2-17.4,38.9-26.1,68-26.1c29.2,0,51.9,8.7,68.2,26.1
		c16.2,17.4,24.4,40,24.4,67.6v3.6c0,27.8-8.1,50.4-24.4,67.7c-16.2,17.3-38.8,26-67.8,26c-29.3,0-52.1-8.7-68.3-26
		c-16.2-17.4-24.4-39.9-24.4-67.7V320z M1783.4,323.6c0,15.4,2.5,27.5,7.5,36.3c5,8.8,13.5,13.2,25.5,13.2c11.7,0,20-4.4,25.1-13.3
		c5.1-8.8,7.6-20.9,7.6-36.2V320c0-15-2.5-27-7.6-36c-5.1-9-13.5-13.5-25.4-13.5c-11.8,0-20.2,4.5-25.2,13.6c-5,9.1-7.5,21-7.5,35.9
		V323.6z"/>
	<path class="st3" d="M1926.9,320c0-27.7,8.1-50.2,24.4-67.6c16.2-17.4,38.9-26.1,68-26.1c29.2,0,51.9,8.7,68.2,26.1
		c16.2,17.4,24.4,40,24.4,67.6v3.6c0,27.8-8.1,50.4-24.4,67.7c-16.2,17.3-38.8,26-67.8,26c-29.3,0-52.1-8.7-68.3-26
		c-16.2-17.4-24.4-39.9-24.4-67.7V320z M1986.6,323.6c0,15.4,2.5,27.5,7.5,36.3c5,8.8,13.5,13.2,25.5,13.2c11.7,0,20-4.4,25.1-13.3
		c5.1-8.8,7.6-20.9,7.6-36.2V320c0-15-2.5-27-7.6-36c-5.1-9-13.5-13.5-25.4-13.5c-11.8,0-20.2,4.5-25.2,13.6c-5,9.1-7.5,21-7.5,35.9
		V323.6z"/>
	<path class="st3" d="M2200.6,413.8h-59.9V148.4h59.9V413.8z"/>
</g>
<g class="st2">
	<path class="st1" d="M2427.3,325.6c0,28-6.3,50.3-18.7,66.9c-12.5,16.6-31,24.8-55.4,24.8c-10.5,0-19.6-2.2-27.4-6.5
		c-7.8-4.4-14.4-10.6-19.8-18.8l-3.9,21.8h-51.7V148.4h59.7v99.2c5.3-6.8,11.4-12.1,18.5-15.7c7-3.7,15.1-5.5,24.3-5.5
		c24.6,0,43.2,8.7,55.7,26c12.5,17.4,18.8,40.6,18.8,69.8V325.6z M2367.8,322.1c0-16.3-2.1-29-6.4-38c-4.2-9-12.1-13.5-23.7-13.5
		c-6.5,0-12,1.2-16.7,3.5c-4.6,2.3-8.3,5.7-11,10.1v77.2c2.8,4,6.5,6.9,11.1,8.8c4.6,1.9,10.2,2.9,17,2.9c11.8,0,19.7-3.9,23.7-11.8
		c4-7.9,6-19.8,6-35.6V322.1z"/>
	<path class="st1" d="M2563.4,413.6c-1.6-2.9-3.1-6.2-4.5-9.9s-2.5-7.4-3.4-11.2c-5.7,7.6-12.5,13.6-20.5,18.1
		c-8,4.5-17.7,6.7-29.1,6.7c-18.1,0-32.9-5-44.2-15.1c-11.4-10.1-17-23.5-17-40.3c0-18.3,7.1-32.4,21.3-42.3
		c14.2-9.9,35.8-14.9,64.7-14.9h21.7v-13.1c0-7.8-1.9-13.8-5.7-18c-3.8-4.2-9.7-6.3-17.7-6.3c-6.8,0-11.9,1.6-15.3,4.7
		c-3.4,3.1-5,8-5,14.5l-57.7-0.2l-0.4-1c-0.8-16.8,6.4-30.8,21.7-42.1s35.6-16.9,60.7-16.9c23.5,0,42.6,5.7,57.3,17
		c14.7,11.3,22,27.6,22,48.7v69.4c0,9.9,0.9,19,2.6,27.4c1.7,8.4,4.3,16.7,7.7,25L2563.4,413.6z M2524,376.3
		c5.9,0,11.3-1.1,16.2-3.4c4.9-2.3,8.9-5.2,12-8.8v-28.8h-21.2c-9.4,0-16.3,2.2-20.6,6.6c-4.3,4.4-6.4,10-6.4,16.8
		c0,5.2,1.9,9.4,5.6,12.7C2513.4,374.7,2518.1,376.3,2524,376.3z"/>
	<path class="st1" d="M2753.2,280.4l-21.7-0.2c-6.8,0-12.4,1.1-16.8,3.3c-4.4,2.2-7.6,5.4-9.7,9.4v120.8h-59.7V229.7h56.2l2.1,27.1
		c4-9.6,9.3-17.1,15.9-22.5c6.6-5.3,14.3-8,23.1-8c2.8,0,5.7,0.2,8.7,0.6c2.9,0.4,5.5,0.9,7.8,1.4L2753.2,280.4z"/>
	<path class="st1" d="M2878.6,362c0-4.5-2.7-8.6-8-12.2c-5.4-3.6-15.1-6.8-29.2-9.6c-22.2-4.2-39-10.7-50.3-19.6
		c-11.3-8.9-17-20.9-17-36.2c0-16.2,7.1-30,21.2-41.3c14.1-11.3,33.3-16.9,57.4-16.9c25.4,0,45.7,5.5,60.7,16.4s22.2,25.1,21.5,42.5
		l-0.4,1h-57.9c0-7.3-1.9-12.8-5.7-16.5c-3.8-3.7-10-5.6-18.5-5.6c-6.2,0-11.5,1.6-15.7,4.9s-6.4,7.5-6.4,12.6c0,4.9,2.4,9,7.3,12.4
		c4.9,3.4,14.7,6.5,29.6,9.2c23.3,4.4,40.6,11,51.8,19.8c11.2,8.8,16.9,21.2,16.9,37.3c0,16.6-7.6,30.2-22.9,40.9
		c-15.2,10.7-35.4,16.1-60.5,16.1c-26,0-46.6-6.4-61.7-19.1c-15.1-12.7-22.3-26.9-21.6-42.5l0.4-1h54c0.2,8.7,3,15,8.2,18.9
		c5.2,3.9,12.7,5.8,22.3,5.8c8,0,14.1-1.5,18.2-4.5C2876.5,371.9,2878.6,367.6,2878.6,362z"/>
</g>
</svg>
