<?xml version="1.0" encoding="UTF-8"?>
<svg xmlns="http://www.w3.org/2000/svg" xmlns:xlink="http://www.w3.org/1999/xlink" viewBox="0 0 64 64" version="1.1" width="64px" height="64px">
<g id="surface1">
<path style=" fill:#B5C4E0;" d="M 13 7 L 51 7 C 54.3125 7 57 9.6875 57 13 L 57 51 C 57 54.3125 54.3125 57 51 57 L 13 57 C 9.6875 57 7 54.3125 7 51 L 7 13 C 7 9.6875 9.6875 7 13 7 Z "/>
<path style=" fill:#CED8ED;" d="M 11 7 L 53 7 C 55.210938 7 57 8.789063 57 11 C 57 12.65625 55.65625 14 54 14 L 10 14 C 8.34375 14 7 12.65625 7 11 C 7 8.789063 8.789063 7 11 7 Z "/>
<path style=" fill:#FAEFDE;" d="M 34 50.261719 C 26.679688 50.261719 26.679688 44.058594 26.679688 41.730469 L 26.679688 33.261719 L 23 33.261719 C 22.449219 33.261719 22 32.8125 22 32.261719 L 22 28.449219 C 22 28.019531 22.273438 27.636719 22.679688 27.5 C 27.28125 25.921875 27.449219 24.140625 27.621094 22.238281 C 27.621094 22.070313 27.621094 21.910156 27.621094 21.75 L 27.621094 20.828125 C 27.621094 20.277344 28.066406 19.828125 28.621094 19.828125 L 33.320313 19.828125 C 33.871094 19.828125 34.320313 20.277344 34.320313 20.828125 L 34.320313 27.359375 L 39 27.359375 C 39.550781 27.359375 40 27.808594 40 28.359375 L 40 32.160156 C 40 32.710938 39.550781 33.160156 39 33.160156 L 34.359375 33.160156 L 34.359375 41.628906 C 34.375 42.632813 35.1875 43.445313 36.191406 43.460938 C 36.964844 43.550781 37.742188 43.300781 38.320313 42.78125 C 38.574219 42.523438 38.945313 42.425781 39.292969 42.519531 C 39.640625 42.613281 39.910156 42.890625 40 43.238281 L 41 47.128906 C 41.070313 47.40625 41.019531 47.695313 40.859375 47.929688 C 40.070313 49.121094 36.53125 50.238281 34.359375 50.238281 Z "/>
<path style=" fill:#8D6C9F;" d="M 51 6 L 13 6 C 9.132813 6 6 9.132813 6 13 L 6 51 C 6 54.867188 9.132813 58 13 58 L 51 58 C 54.867188 58 58 54.867188 58 51 L 58 13 C 58 9.132813 54.867188 6 51 6 Z M 56 51 C 56 53.761719 53.761719 56 51 56 L 13 56 C 10.238281 56 8 53.761719 8 51 L 8 13 C 8 10.238281 10.238281 8 13 8 L 51 8 C 53.761719 8 56 10.238281 56 13 Z "/>
<path style=" fill:#8D6C9F;" d="M 41 43 C 40.824219 42.300781 40.289063 41.753906 39.59375 41.5625 C 38.902344 41.367188 38.160156 41.5625 37.648438 42.070313 C 37.300781 42.421875 36.929688 42.460938 36.230469 42.460938 C 35.53125 42.460938 35.398438 41.628906 35.398438 41.628906 L 35.398438 34.179688 L 39 34.179688 C 40.105469 34.179688 41 33.285156 41 32.179688 L 41 28.378906 C 41 27.277344 40.105469 26.378906 39 26.378906 L 35.359375 26.378906 L 35.359375 20.839844 C 35.359375 19.734375 34.464844 18.839844 33.359375 18.839844 L 28.660156 18.839844 C 27.554688 18.839844 26.660156 19.734375 26.660156 20.839844 L 26.660156 21.699219 C 26.660156 21.851563 26.660156 22 26.660156 22.148438 C 26.5 23.910156 26.378906 25.148438 22.390625 26.550781 C 21.5625 26.816406 21.003906 27.582031 21 28.449219 L 21 32.25 C 21 33.355469 21.894531 34.25 23 34.25 L 25.699219 34.25 L 25.699219 41.71875 C 25.699219 48.050781 28.5 51.25 34.019531 51.25 L 34.371094 51.25 C 36.558594 51.25 40.570313 50.148438 41.671875 48.5 C 41.984375 48.03125 42.085938 47.457031 41.949219 46.910156 Z M 34.359375 49.230469 L 34 49.230469 C 28.070313 49.230469 27.679688 44.800781 27.679688 41.699219 L 27.679688 32.261719 L 23 32.261719 L 23 28.460938 C 28.671875 26.519531 28.421875 24.011719 28.671875 21.820313 L 28.671875 20.820313 L 33.371094 20.820313 L 33.371094 28.351563 L 39 28.351563 L 39 32.148438 L 33.359375 32.148438 L 33.359375 41.621094 C 33.375 43.175781 34.632813 44.433594 36.191406 44.449219 C 37.234375 44.535156 38.261719 44.171875 39.019531 43.449219 L 40.019531 47.339844 C 39.511719 48.121094 36.441406 49.261719 34.328125 49.261719 Z "/>
<path style=" fill:#8D6C9F;" d="M 17 12 C 16.449219 12 16 12.449219 16 13 L 16 15 C 16 15.550781 16.449219 16 17 16 C 17.550781 16 18 15.550781 18 15 L 18 13 C 18 12.449219 17.550781 12 17 12 Z "/>
<path style=" fill:#8D6C9F;" d="M 12 12 C 11.449219 12 11 12.449219 11 13 L 11 15 C 11 15.550781 11.449219 16 12 16 C 12.550781 16 13 15.550781 13 15 L 13 13 C 13 12.449219 12.550781 12 12 12 Z "/>
<path style=" fill:#8D6C9F;" d="M 32 16 C 32.550781 16 33 15.550781 33 15 L 33 13 C 33 12.449219 32.550781 12 32 12 C 31.449219 12 31 12.449219 31 13 L 31 15 C 31 15.550781 31.449219 16 32 16 Z "/>
<path style=" fill:#8D6C9F;" d="M 37 16 C 37.550781 16 38 15.550781 38 15 L 38 13 C 38 12.449219 37.550781 12 37 12 C 36.449219 12 36 12.449219 36 13 L 36 15 C 36 15.550781 36.449219 16 37 16 Z "/>
<path style=" fill:#8D6C9F;" d="M 42 12 C 41.449219 12 41 12.449219 41 13 L 41 15 C 41 15.550781 41.449219 16 42 16 C 42.550781 16 43 15.550781 43 15 L 43 13 C 43 12.449219 42.550781 12 42 12 Z "/>
<path style=" fill:#8D6C9F;" d="M 47 12 C 46.449219 12 46 12.449219 46 13 L 46 15 C 46 15.550781 46.449219 16 47 16 C 47.550781 16 48 15.550781 48 15 L 48 13 C 48 12.449219 47.550781 12 47 12 Z "/>
<path style=" fill:#8D6C9F;" d="M 52 12 C 51.449219 12 51 12.449219 51 13 L 51 15 C 51 15.550781 51.449219 16 52 16 C 52.550781 16 53 15.550781 53 15 L 53 13 C 53 12.449219 52.550781 12 52 12 Z "/>
<path style=" fill:#8D6C9F;" d="M 22 16 C 22.550781 16 23 15.550781 23 15 L 23 13 C 23 12.449219 22.550781 12 22 12 C 21.449219 12 21 12.449219 21 13 L 21 15 C 21 15.550781 21.449219 16 22 16 Z "/>
<path style=" fill:#8D6C9F;" d="M 27 16 C 27.550781 16 28 15.550781 28 15 L 28 13 C 28 12.449219 27.550781 12 27 12 C 26.449219 12 26 12.449219 26 13 L 26 15 C 26 15.550781 26.449219 16 27 16 Z "/>
</g>
</svg>
